<?xml version="1.0" encoding="UTF-8"?>
<svg xmlns="http://www.w3.org/2000/svg" xmlns:xlink="http://www.w3.org/1999/xlink" viewBox="0 0 96 96" width="96px" height="96px">
<g id="surface46777273">
<rect x="0" y="0" width="96" height="96" style=";stroke:none;"/>
<path style=" stroke:none;fill-rule:nonzero;fill:rgb(100%,100%,100%);fill-opacity:1;" d="M 48 8 C 46.929688 8 45.90625 8.429688 45.15625 9.1875 L 4.8125 44.390625 C 4.300781 44.769531 4 45.363281 4 46 C 4 47.105469 4.894531 48 6 48 L 16 48 L 16 80 C 16 82.207031 17.792969 84 20 84 L 36 84 C 38.207031 84 40 82.207031 40 80 L 40 56 L 56 56 L 56 80 C 56 82.207031 57.792969 84 60 84 L 76 84 C 78.207031 84 80 82.207031 80 80 L 80 48 L 90 48 C 91.105469 48 92 47.105469 92 46 C 92 45.363281 91.699219 44.769531 91.1875 44.390625 L 50.867188 9.210938 C 50.859375 9.203125 50.851562 9.195312 50.84375 9.1875 C 50.09375 8.429688 49.070312 8 48 8 Z M 48 8 "/>
</g>
</svg>
